 <svg version="1.0" xmlns="http://www.w3.org/2000/svg" width="700.000000pt" height="700.000000pt" viewBox="0 0 700.000000 700.000000" preserveAspectRatio="xMidYMid meet">
<metadata>
Created by potrace 1.12, written by Peter Selinger 2001-2015
</metadata>
<g transform="translate(0.000000,700.000000) scale(0.100000,-0.100000)" fill="#000000" stroke="none">
<path d="M3225 6509 c-131 -16 -306 -43 -360 -56 -16 -4 -32 -7 -35 -8 -3 -1
-21 -5 -40 -9 -19 -4 -73 -19 -120 -33 -47 -13 -92 -26 -100 -28 -116 -28
-533 -219 -616 -282 -17 -13 -33 -23 -36 -23 -10 0 -161 -104 -248 -170 -205
-155 -394 -345 -561 -560 -65 -84 -148 -202 -162 -230 -4 -8 -23 -40 -42 -70
-60 -99 -151 -282 -200 -405 -26 -66 -51 -129 -56 -140 -13 -31 -55 -181 -78
-280 -12 -49 -26 -105 -31 -124 -5 -19 -7 -38 -4 -42 2 -4 0 -18 -5 -32 -5
-14 -12 -53 -15 -87 -4 -34 -8 -65 -10 -69 -2 -3 -7 -51 -10 -106 -3 -55 -8
-136 -12 -180 -3 -46 2 -163 11 -275 20 -231 21 -241 30 -288 4 -21 9 -48 11
-62 3 -14 8 -34 11 -45 3 -11 7 -29 9 -40 12 -103 111 -415 175 -553 22 -46
39 -87 39 -90 0 -4 9 -18 19 -31 l19 -24 158 90 c88 50 175 100 194 111 19 11
64 37 100 57 36 21 79 46 95 55 41 22 111 62 235 135 58 34 224 131 370 215
146 84 312 181 370 215 58 34 137 80 175 102 39 22 167 95 285 163 118 68 231
132 250 143 115 64 247 142 263 155 15 14 17 43 17 333 0 214 -3 320 -11 324
-5 4 -18 0 -27 -7 -9 -8 -44 -30 -77 -48 -33 -18 -80 -45 -105 -60 -25 -15
-164 -96 -310 -180 -146 -84 -330 -192 -410 -238 -134 -79 -400 -233 -650
-375 -119 -68 -142 -81 -225 -129 -429 -249 -402 -238 -409 -166 -2 18 -10 80
-18 138 -9 58 -15 170 -14 250 l1 145 170 98 c94 54 177 101 185 104 8 4 92
52 185 107 199 116 178 104 415 241 102 59 203 117 225 129 22 13 78 46 125
73 47 28 119 71 161 94 42 24 236 136 433 248 l356 204 0 329 c0 180 -2 328
-5 328 -6 0 -182 -101 -395 -225 -63 -38 -155 -91 -205 -120 -49 -28 -162 -94
-250 -145 -141 -81 -362 -209 -450 -260 -16 -10 -145 -82 -285 -162 -140 -80
-289 -165 -330 -190 -143 -85 -190 -110 -190 -97 0 32 122 288 193 404 83 136
211 314 248 345 3 3 33 35 65 72 70 78 232 223 337 301 174 129 425 264 605
326 35 12 96 40 135 63 40 22 113 64 162 93 50 29 140 80 200 115 61 34 122
71 138 82 l27 20 -2 171 c-2 103 -7 171 -13 172 -5 1 -41 -1 -80 -6z"></path>
<path d="M3688 5069 l-3 -1453 55 -34 c76 -46 361 -212 365 -212 2 0 33 -18
69 -40 36 -22 69 -40 73 -40 5 0 7 282 5 627 -1 345 1 630 6 635 5 5 65 -25
136 -67 70 -41 129 -75 131 -75 2 0 32 -17 67 -38 35 -22 95 -57 133 -79 39
-22 140 -81 225 -131 85 -49 207 -119 270 -154 113 -64 500 -286 675 -388 50
-29 110 -64 135 -78 25 -14 57 -33 72 -43 14 -11 29 -19 31 -19 5 0 174 -98
311 -181 27 -17 53 -26 57 -22 12 12 16 302 6 442 -8 130 -16 189 -28 212 -5
9 -122 81 -261 160 -139 79 -273 156 -298 170 -25 14 -76 44 -114 67 -37 23
-70 42 -72 42 -3 0 -23 11 -45 26 -22 14 -57 34 -77 46 -161 90 -350 200 -414
240 -43 26 -80 48 -83 48 -3 0 -31 16 -61 35 -30 19 -56 35 -58 35 -2 0 -43
23 -92 51 -49 29 -105 61 -124 72 -19 10 -64 36 -100 57 -36 21 -82 47 -103
59 -105 59 -303 174 -314 183 -10 8 -13 79 -13 293 0 156 3 290 6 298 4 12 19
10 86 -14 109 -39 244 -100 318 -143 34 -20 63 -36 66 -36 19 0 273 -180 339
-240 28 -26 159 -110 171 -110 3 0 30 -16 60 -35 30 -19 56 -35 58 -35 3 0 50
-27 106 -60 56 -33 103 -60 105 -60 2 0 32 -17 67 -39 52 -31 234 -137 428
-249 147 -84 191 -111 203 -120 33 -28 19 10 -62 171 -85 168 -198 352 -290
472 -55 71 -159 196 -175 210 -6 6 -26 29 -45 53 -41 53 -222 216 -338 304
-26 20 -68 53 -93 72 -99 76 -381 239 -535 308 -127 57 -397 151 -466 162 -20
3 -48 10 -63 15 -14 6 -26 8 -26 6 0 -2 -11 0 -24 5 -14 5 -42 11 -63 14 -21
3 -76 11 -123 19 -47 9 -119 18 -160 22 -41 3 -83 8 -92 11 -17 5 -18 -71 -20
-1447z"></path>
<path d="M3475 3281 c-10 -9 -248 -149 -365 -213 -30 -17 -67 -39 -82 -49 -14
-11 -28 -19 -31 -19 -2 0 -44 -23 -93 -52 -49 -28 -127 -73 -174 -100 -47 -27
-99 -57 -116 -67 -61 -37 -420 -244 -464 -269 -25 -13 -49 -28 -55 -32 -8 -6
-714 -411 -942 -541 -17 -10 -50 -29 -72 -43 -22 -15 -44 -26 -48 -26 -5 0
-16 -7 -26 -14 -18 -14 -18 -15 -1 -43 19 -29 125 -174 134 -183 3 -3 25 -30
50 -60 71 -86 152 -170 164 -170 7 0 81 41 165 90 84 50 155 90 158 90 2 0 29
16 59 35 30 19 56 35 58 35 3 0 53 29 113 64 90 53 247 144 388 226 119 68
475 271 540 308 84 47 159 91 262 154 34 21 65 38 68 38 3 0 24 11 46 26 22
14 55 33 72 43 33 18 88 49 169 96 l48 27 117 -69 c161 -93 165 -95 275 -155
54 -29 98 -56 98 -60 0 -6 -29 -23 -160 -96 -25 -14 -78 -45 -118 -69 -41 -24
-75 -43 -78 -43 -2 0 -28 -16 -58 -35 -30 -19 -57 -35 -60 -35 -3 0 -30 -16
-60 -35 -30 -19 -58 -35 -61 -35 -3 0 -34 -17 -68 -38 -58 -37 -96 -58 -192
-112 -43 -24 -370 -215 -395 -231 -22 -14 -602 -345 -635 -363 -85 -46 -345
-201 -345 -207 0 -20 284 -188 448 -265 l117 -56 45 23 c25 13 69 38 98 56 29
18 54 33 55 33 4 0 195 110 387 222 80 46 234 135 342 196 108 61 242 139 298
172 56 33 104 60 107 60 3 0 17 8 31 19 15 10 52 32 82 49 30 16 150 85 265
152 116 68 230 134 255 148 25 14 57 33 72 43 14 11 28 19 31 19 3 0 40 20 81
45 42 25 83 45 91 45 8 0 31 -10 52 -21 65 -36 293 -169 396 -231 54 -32 102
-58 107 -58 21 0 8 -20 -32 -51 -24 -19 -45 -36 -48 -40 -3 -3 -48 -37 -100
-76 -108 -79 -185 -126 -330 -204 -53 -28 -182 -85 -210 -93 -14 -4 -36 -12
-50 -18 -47 -20 -65 -27 -130 -46 -57 -18 -115 -33 -130 -34 -3 0 -14 -4 -26
-8 -11 -5 -37 -11 -58 -14 -53 -9 -85 -24 -240 -115 -76 -44 -140 -81 -143
-81 -3 0 -17 -8 -31 -19 -15 -10 -47 -29 -72 -43 -51 -28 -147 -84 -170 -98
-60 -39 -344 -200 -360 -205 -11 -3 -20 -11 -20 -17 0 -5 6 -8 14 -5 8 3 30 2
48 -3 42 -12 84 -17 291 -31 168 -12 420 -3 587 21 36 5 81 11 100 14 45 6
217 45 310 71 28 7 194 63 255 85 182 65 470 218 654 347 177 125 458 381 583
533 66 79 198 259 198 268 0 5 -17 17 -37 28 -99 53 -187 104 -320 186 -34 21
-64 38 -67 38 -2 0 -40 21 -83 46 -43 26 -143 84 -223 129 -193 109 -756 433
-945 544 -98 58 -121 71 -228 132 -40 23 -86 50 -104 60 -17 10 -50 29 -72 43
-22 15 -42 26 -45 26 -2 0 -61 34 -131 75 -69 41 -128 75 -129 75 -2 0 -30 16
-62 35 -61 37 -74 41 -89 26z"></path>
<path d="M5877 2953 c-3 -21 -8 -47 -11 -58 -3 -11 -9 -36 -14 -55 -5 -20 -14
-45 -21 -58 -6 -12 -10 -22 -7 -22 6 0 -47 -146 -83 -229 -17 -38 -31 -73 -31
-78 0 -9 11 -17 85 -57 28 -16 55 -32 60 -36 25 -20 329 -190 339 -190 6 0 19
17 28 38 37 79 75 168 87 202 7 19 17 44 22 55 9 20 70 213 73 228 0 5 -13 16
-30 26 -17 9 -62 35 -100 58 -233 137 -367 213 -378 213 -8 0 -16 -16 -19 -37z"></path>
</g>
</svg>